<mxfile host="65bd71144e" modified="2021-03-03T11:42:29.934Z" agent="5.0 (X11; Linux x86_64) AppleWebKit/537.36 (KHTML, like Gecko) Code/1.53.2 Chrome/87.0.4280.141 Electron/11.2.1 Safari/537.36" etag="ZRo8bWw3jTCj4kiaACdl" version="14.2.4" type="embed">
    <diagram id="3iIcorvSgb4sRI61AYNv" name="Page-1">
        <mxGraphModel dx="430" dy="1170" grid="1" gridSize="10" guides="1" tooltips="1" connect="1" arrows="1" fold="1" page="1" pageScale="1" pageWidth="850" pageHeight="1100" math="1" shadow="0">
            <root>
                <mxCell id="0"/>
                <mxCell id="1" parent="0"/>
                <mxCell id="mmMjZxsCA5bhdsSI0eIC-1" value="" style="ellipse;whiteSpace=wrap;html=1;aspect=fixed;fillColor=#fff2cc;strokeColor=#d6b656;" parent="1" vertex="1">
                    <mxGeometry x="160" y="130" width="80" height="80" as="geometry"/>
                </mxCell>
                <mxCell id="mmMjZxsCA5bhdsSI0eIC-4" value="$$a^l_j$$" style="text;html=1;strokeColor=none;fillColor=none;align=center;verticalAlign=middle;whiteSpace=wrap;rounded=0;" parent="1" vertex="1">
                    <mxGeometry x="260" y="130" width="40" height="20" as="geometry"/>
                </mxCell>
                <mxCell id="mmMjZxsCA5bhdsSI0eIC-5" value="" style="endArrow=classic;html=1;fillColor=#008a00;strokeColor=#005700;" parent="1" edge="1">
                    <mxGeometry width="50" height="50" relative="1" as="geometry">
                        <mxPoint x="240" y="160" as="sourcePoint"/>
                        <mxPoint x="320" y="160" as="targetPoint"/>
                    </mxGeometry>
                </mxCell>
                <mxCell id="mmMjZxsCA5bhdsSI0eIC-6" value="" style="endArrow=classic;html=1;fillColor=#e51400;strokeColor=#B20000;" parent="1" edge="1">
                    <mxGeometry width="50" height="50" relative="1" as="geometry">
                        <mxPoint x="160" y="140" as="sourcePoint"/>
                        <mxPoint x="80" y="100" as="targetPoint"/>
                    </mxGeometry>
                </mxCell>
                <mxCell id="mmMjZxsCA5bhdsSI0eIC-7" value="" style="endArrow=classic;html=1;fillColor=#008a00;strokeColor=#005700;" parent="1" edge="1">
                    <mxGeometry width="50" height="50" relative="1" as="geometry">
                        <mxPoint x="90" y="90" as="sourcePoint"/>
                        <mxPoint x="170" y="130" as="targetPoint"/>
                    </mxGeometry>
                </mxCell>
                <mxCell id="mmMjZxsCA5bhdsSI0eIC-8" value="$$&lt;br&gt;\frac{\partial Loss}{\partial a^l_j}&lt;br&gt;$$" style="text;html=1;strokeColor=none;fillColor=none;align=center;verticalAlign=middle;whiteSpace=wrap;rounded=0;" parent="1" vertex="1">
                    <mxGeometry x="235" y="180" width="90" height="70" as="geometry"/>
                </mxCell>
                <mxCell id="mmMjZxsCA5bhdsSI0eIC-9" value="" style="endArrow=classic;html=1;fillColor=#e51400;strokeColor=#B20000;" parent="1" edge="1">
                    <mxGeometry width="50" height="50" relative="1" as="geometry">
                        <mxPoint x="320" y="180" as="sourcePoint"/>
                        <mxPoint x="240" y="180" as="targetPoint"/>
                    </mxGeometry>
                </mxCell>
                <mxCell id="mmMjZxsCA5bhdsSI0eIC-10" value="" style="endArrow=classic;html=1;fillColor=#008a00;strokeColor=#005700;" parent="1" edge="1">
                    <mxGeometry width="50" height="50" relative="1" as="geometry">
                        <mxPoint x="80" y="240" as="sourcePoint"/>
                        <mxPoint x="160" y="200" as="targetPoint"/>
                    </mxGeometry>
                </mxCell>
                <mxCell id="mmMjZxsCA5bhdsSI0eIC-11" value="$$a^{l-1}_i$$" style="text;html=1;strokeColor=none;fillColor=none;align=center;verticalAlign=middle;whiteSpace=wrap;rounded=0;" parent="1" vertex="1">
                    <mxGeometry x="120" y="80" width="40" height="20" as="geometry"/>
                </mxCell>
                <mxCell id="mmMjZxsCA5bhdsSI0eIC-13" value="" style="endArrow=classic;html=1;fillColor=#e51400;strokeColor=#B20000;" parent="1" edge="1">
                    <mxGeometry width="50" height="50" relative="1" as="geometry">
                        <mxPoint x="170" y="210" as="sourcePoint"/>
                        <mxPoint x="90" y="250" as="targetPoint"/>
                    </mxGeometry>
                </mxCell>
                <mxCell id="mmMjZxsCA5bhdsSI0eIC-14" value="$$&lt;br&gt;\frac{\partial Loss}{\partial a^{l-1}_{i}}&lt;br&gt;$$" style="text;html=1;strokeColor=none;fillColor=none;align=center;verticalAlign=middle;whiteSpace=wrap;rounded=0;" parent="1" vertex="1">
                    <mxGeometry x="60" y="115" width="100" height="70" as="geometry"/>
                </mxCell>
                <mxCell id="mmMjZxsCA5bhdsSI0eIC-15" value="$$&lt;br&gt;\frac{\partial Loss}{\partial a^{l-1}_{i+1}}&lt;br&gt;$$" style="text;html=1;strokeColor=none;fillColor=none;align=center;verticalAlign=middle;whiteSpace=wrap;rounded=0;" parent="1" vertex="1">
                    <mxGeometry x="92.5" y="230" width="95" height="70" as="geometry"/>
                </mxCell>
                <mxCell id="mmMjZxsCA5bhdsSI0eIC-16" value="$$a^{l-1}_{i+1}$$" style="text;html=1;strokeColor=none;fillColor=none;align=center;verticalAlign=middle;whiteSpace=wrap;rounded=0;" parent="1" vertex="1">
                    <mxGeometry x="90" y="190" width="40" height="20" as="geometry"/>
                </mxCell>
                <mxCell id="mmMjZxsCA5bhdsSI0eIC-17" value="" style="ellipse;whiteSpace=wrap;html=1;aspect=fixed;fillColor=#fff2cc;strokeColor=#d6b656;" parent="1" vertex="1">
                    <mxGeometry x="460" y="125" width="80" height="80" as="geometry"/>
                </mxCell>
                <mxCell id="mmMjZxsCA5bhdsSI0eIC-18" value="$$a^l_j$$" style="text;html=1;strokeColor=none;fillColor=none;align=center;verticalAlign=middle;whiteSpace=wrap;rounded=0;" parent="1" vertex="1">
                    <mxGeometry x="560" y="125" width="40" height="20" as="geometry"/>
                </mxCell>
                <mxCell id="mmMjZxsCA5bhdsSI0eIC-19" value="" style="endArrow=classic;html=1;fillColor=#008a00;strokeColor=#005700;" parent="1" edge="1">
                    <mxGeometry width="50" height="50" relative="1" as="geometry">
                        <mxPoint x="540" y="155" as="sourcePoint"/>
                        <mxPoint x="620" y="155" as="targetPoint"/>
                    </mxGeometry>
                </mxCell>
                <mxCell id="mmMjZxsCA5bhdsSI0eIC-20" value="" style="endArrow=classic;html=1;fillColor=#e51400;strokeColor=#B20000;" parent="1" edge="1">
                    <mxGeometry width="50" height="50" relative="1" as="geometry">
                        <mxPoint x="460" y="135" as="sourcePoint"/>
                        <mxPoint x="380" y="95" as="targetPoint"/>
                    </mxGeometry>
                </mxCell>
                <mxCell id="mmMjZxsCA5bhdsSI0eIC-21" value="" style="endArrow=classic;html=1;fillColor=#008a00;strokeColor=#005700;" parent="1" edge="1">
                    <mxGeometry width="50" height="50" relative="1" as="geometry">
                        <mxPoint x="390" y="85" as="sourcePoint"/>
                        <mxPoint x="470" y="125" as="targetPoint"/>
                    </mxGeometry>
                </mxCell>
                <mxCell id="mmMjZxsCA5bhdsSI0eIC-22" value="$$&lt;br&gt;\frac{\partial Loss}{\partial a^l_j}&lt;br&gt;$$" style="text;html=1;strokeColor=none;fillColor=none;align=center;verticalAlign=middle;whiteSpace=wrap;rounded=0;" parent="1" vertex="1">
                    <mxGeometry x="535" y="180" width="90" height="65" as="geometry"/>
                </mxCell>
                <mxCell id="mmMjZxsCA5bhdsSI0eIC-23" value="" style="endArrow=classic;html=1;fillColor=#e51400;strokeColor=#B20000;" parent="1" edge="1">
                    <mxGeometry width="50" height="50" relative="1" as="geometry">
                        <mxPoint x="620" y="175" as="sourcePoint"/>
                        <mxPoint x="540" y="175" as="targetPoint"/>
                    </mxGeometry>
                </mxCell>
                <mxCell id="mmMjZxsCA5bhdsSI0eIC-24" value="" style="endArrow=classic;html=1;fillColor=#008a00;strokeColor=#005700;" parent="1" edge="1">
                    <mxGeometry width="50" height="50" relative="1" as="geometry">
                        <mxPoint x="380" y="235" as="sourcePoint"/>
                        <mxPoint x="460" y="195" as="targetPoint"/>
                    </mxGeometry>
                </mxCell>
                <mxCell id="mmMjZxsCA5bhdsSI0eIC-25" value="$$a^{l-1}_i$$" style="text;html=1;strokeColor=none;fillColor=none;align=center;verticalAlign=middle;whiteSpace=wrap;rounded=0;" parent="1" vertex="1">
                    <mxGeometry x="420" y="75" width="40" height="20" as="geometry"/>
                </mxCell>
                <mxCell id="mmMjZxsCA5bhdsSI0eIC-26" value="" style="endArrow=classic;html=1;fillColor=#e51400;strokeColor=#B20000;" parent="1" edge="1">
                    <mxGeometry width="50" height="50" relative="1" as="geometry">
                        <mxPoint x="470" y="205" as="sourcePoint"/>
                        <mxPoint x="390" y="245" as="targetPoint"/>
                    </mxGeometry>
                </mxCell>
                <mxCell id="mmMjZxsCA5bhdsSI0eIC-28" value="$$&lt;br&gt;\frac{\partial a^l_j}{\partial a^{l-1}_{i+1}} \frac{\partial Loss}{\partial a^l_j}&lt;br&gt;$$" style="text;html=1;strokeColor=none;fillColor=none;align=center;verticalAlign=middle;whiteSpace=wrap;rounded=0;" parent="1" vertex="1">
                    <mxGeometry x="390" y="222.5" width="100" height="85" as="geometry"/>
                </mxCell>
                <mxCell id="mmMjZxsCA5bhdsSI0eIC-29" value="$$a^{l-1}_{i+1}$$" style="text;html=1;strokeColor=none;fillColor=none;align=center;verticalAlign=middle;whiteSpace=wrap;rounded=0;" parent="1" vertex="1">
                    <mxGeometry x="390" y="185" width="40" height="20" as="geometry"/>
                </mxCell>
                <mxCell id="mmMjZxsCA5bhdsSI0eIC-30" value="$$&lt;br&gt;\frac{\partial a^l_j}{\partial a^{l-1}_{i}} \frac{\partial Loss}{\partial a^l_j}&lt;br&gt;$$" style="text;html=1;strokeColor=none;fillColor=none;align=center;verticalAlign=middle;whiteSpace=wrap;rounded=0;" parent="1" vertex="1">
                    <mxGeometry x="360" y="110" width="100" height="80" as="geometry"/>
                </mxCell>
            </root>
        </mxGraphModel>
    </diagram>
</mxfile>